<?xml version="1.0" encoding="utf-8"?>
<!-- Generator: Adobe Illustrator 24.0.1, SVG Export Plug-In . SVG Version: 6.00 Build 0)  -->
<svg version="1.1" id="Layer_1" xmlns="http://www.w3.org/2000/svg" xmlns:xlink="http://www.w3.org/1999/xlink" x="0px" y="0px"
	 viewBox="0 0 240 256" style="enable-background:new 0 0 1024 249.6;" xml:space="preserve">
<style type="text/css">
	.st0{fill:#5A5A5A;}
	.st1{fill:#228800;}
</style>
<path class="st1" d="M112.9,65c0.2-31.2-25-56.6-56.1-56.7S0.2,33.2,0,64.4s25,56.6,56.1,56.7c0.1,0,0.2,0,0.3,0h56.4V65z"/>
<path class="st1" d="M129.1,65c-0.2-31.2,25-56.6,56.1-56.7s56.6,25,56.7,56.1s-25,56.6-56.1,56.7c-0.1,0-0.2,0-0.3,0h-56.4V65z"/>
<path class="st1" d="M129.1,193.5c-0.2,31.2,24.9,56.6,56.1,56.8c31.2,0.2,56.6-24.9,56.8-56.1c0.2-31.2-24.9-56.6-56.1-56.8
	c-0.1,0-0.2,0-0.4,0h-56.4V193.5z"/>
<path class="st1" d="M112.9,193.5c0.2,31.2-24.9,56.6-56.1,56.8C25.6,250.4,0.2,225.3,0,194.1s24.9-56.6,56.1-56.8
	c0.1,0,0.2,0,0.4,0h56.4V193.5z M56.4,233.8c22.3,0.1,40.5-18,40.6-40.3v-40.3H56.5c-22.2,0-40.3,18-40.3,40.3
	S34.2,233.8,56.4,233.8L56.4,233.8z"/>
</svg>
