<?xml version="1.0" encoding="UTF-8"?>
<svg id="Layer_1" xmlns="http://www.w3.org/2000/svg" version="1.1" viewBox="0 0 827 792">
  <!-- Generator: Adobe Illustrator 29.1.0, SVG Export Plug-In . SVG Version: 2.1.0 Build 142)  -->
  <defs>
    <style>
      .st0 {
        fill: #231f20;
      }
    </style>
  </defs>
  <path class="st0" d="M56.7592773,349.8232422l2.5249023-11.6083984,44.2363281,7.362793,13.3339844,2.9003906-2.9941406,13.765625-57.1010742-12.4204102ZM58.2431641,342.9995117l2.4399414-11.2163086,42.5-4.1044922-36.9555664-21.387207,2.4399414-11.2163086,52.8789062,31.8330078-1.9790039,9.0986328-61.3242188,6.9926758ZM67.6269531,299.8598633l2.5332031-11.6479492,57.1015625,12.4204102-3.0029297,13.8046875-13.3339844-2.9003906-43.2978516-11.6767578Z"/>
  <path class="st0" d="M93.9189453,233.0947266l52.6391602,25.3769531-6.1000977,12.6533203-52.6391602-25.3764648,6.1000977-12.6538086Z"/>
  <path class="st0" d="M166.7949219,191.5151367l8.5478516-11.1474609c3.1137695,2.6240234,5.2910156,5.6762695,6.5327148,9.1572266,1.2421875,3.4814453,1.46875,7.1533203.6811523,11.0170898-.7880859,3.8637695-2.6474609,7.7060547-5.578125,11.527832-2.3774414,3.1000977-5.0185547,5.4663086-7.9228516,7.0996094-2.9042969,1.6342773-5.9804688,2.5454102-9.2285156,2.7353516-3.2475586.1899414-6.6000977-.340332-10.0576172-1.5927734-3.4570312-1.2514648-6.9262695-3.2124023-10.4086914-5.8828125l-2.5161133-1.9296875c-3.4819336-2.6699219-6.2651367-5.5375977-8.3491211-8.6025391-2.0834961-3.0644531-3.4521484-6.2041016-4.1054688-9.4199219-.6533203-3.2143555-.5805664-6.4208984.2192383-9.6186523.7998047-3.1962891,2.3227539-6.2602539,4.5693359-9.1904297,3.0932617-4.0341797,6.4287109-6.8881836,10.0058594-8.5629883,3.5766602-1.6738281,7.2089844-2.3110352,10.8974609-1.9101562,3.6884766.4003906,7.2416992,1.6928711,10.6591797,3.875l-8.5478516,11.1469727c-1.7739258-1.2919922-3.4614258-2.1147461-5.0634766-2.4663086-1.6015625-.3515625-3.1552734-.1606445-4.6616211.5722656-1.5063477.7333984-3.0166016,2.0869141-4.5307617,4.0615234-1.0585938,1.3803711-1.7236328,2.7749023-1.9956055,4.1850586-.2719727,1.409668-.1162109,2.878418.4667969,4.4038086.5830078,1.5268555,1.6240234,3.1254883,3.1235352,4.7978516,1.4990234,1.6728516,3.4804688,3.453125,5.9433594,5.3417969l2.5795898,1.9780273c2.4633789,1.8891602,4.6791992,3.3525391,6.6479492,4.3901367,1.9692383,1.0380859,3.7583008,1.6513672,5.3666992,1.8393555,1.6088867.1889648,3.0766602-.043457,4.402832-.6958008,1.3261719-.6513672,2.5751953-1.7421875,3.7475586-3.2709961,1.3022461-1.6982422,2.1308594-3.3393555,2.4848633-4.9223633.3540039-1.5825195.2177734-3.1206055-.4082031-4.6123047-.6264648-1.4916992-1.7939453-2.9257812-3.5019531-4.3037109Z"/>
  <path class="st0" d="M186.5639648,117.2749023l35.8793945,46.1245117-11.1191406,8.6494141-35.8798828-46.1245117,11.1196289-8.6494141ZM220.7651367,120.0605469l6.6533203,8.5532227-23.6640625,18.4077148-6.6538086-8.5532227,23.6645508-18.4077148ZM213.9980469,95.9345703l35.8793945,46.1245117-11.0878906,8.6245117-35.8793945-46.1245117,11.0878906-8.6245117Z"/>
  <path class="st0" d="M265.6074219,67.7734375l25.4262695,52.6152344-12.6479492,6.1123047-25.4262695-52.6152344,12.6479492-6.1123047Z"/>
  <path class="st0" d="M359.9907227,66.0493164l5.7172852,23.3095703c-.7001953,1.3017578-1.8959961,2.800293-3.5874023,4.4960938s-3.9394531,3.3422852-6.7436523,4.9389648c-2.8041992,1.597168-6.246582,2.8959961-10.3256836,3.8964844-3.7685547.9243164-7.3339844,1.1582031-10.6962891.7021484-3.362793-.456543-6.4306641-1.5908203-9.203125-3.4042969-2.7729492-1.8129883-5.1694336-4.2832031-7.1899414-7.4106445-2.0205078-3.1264648-3.5722656-6.8994141-4.6557617-11.3173828l-.7744141-3.1572266c-1.0834961-4.4174805-1.4487305-8.4882812-1.0942383-12.2114258.3535156-3.7236328,1.3271484-7.0268555,2.9204102-9.9111328,1.5927734-2.8837891,3.7143555-5.2978516,6.3642578-7.2431641,2.6499023-1.9443359,5.7416992-3.3505859,9.2763672-4.2172852,5.2231445-1.28125,9.6743164-1.4980469,13.3530273-.6513672,3.6791992.8476562,6.7182617,2.5126953,9.1181641,4.9956055,2.3999023,2.4833984,4.246582,5.5771484,5.5415039,9.2817383l-13.1362305,3.222168c-.71875-1.8076172-1.5966797-3.2792969-2.6328125-4.4165039-1.0366211-1.1367188-2.3017578-1.887207-3.7958984-2.2509766-1.4941406-.3632812-3.2939453-.2875977-5.3989258.2290039-1.637207.4013672-3.0390625,1.1171875-4.2050781,2.1469727-1.1665039,1.0302734-2.0429688,2.3681641-2.6313477,4.0136719-.5878906,1.6459961-.8740234,3.5961914-.8583984,5.8510742.0161133,2.2553711.3745117,4.8120117,1.0756836,7.6704102l.793457,3.2353516c.6948242,2.8330078,1.543457,5.2558594,2.5473633,7.2680664,1.0029297,2.0131836,2.1660156,3.6083984,3.487793,4.7856445,1.3217773,1.1777344,2.8305664,1.9370117,4.5258789,2.2783203,1.6958008.3422852,3.5820312.2578125,5.6616211-.2519531,1.4550781-.3569336,2.6723633-.7861328,3.6513672-1.2880859.9785156-.5019531,1.7661133-1.0253906,2.3623047-1.5712891.5961914-.5454102,1.034668-1.0322266,1.315918-1.4594727l-2.1606445-8.809082-9.5112305,2.3325195-2.3037109-9.394043,23.1923828-5.6884766Z"/>
  <path class="st0" d="M423.0634766,47.3613281l-14.9951172,45.918457-15.1289062-.2451172,22.4169922-58.0810547,9.5917969.1552734-1.8847656,12.2524414ZM433.9033203,71.9023438l-.1757812,10.8754883-29.9765625-.4863281.1762695-10.875,29.9760742.4858398ZM434.1123047,93.7021484l-13.5375977-46.3808594-1.6469727-12.3095703,9.7119141.1572266,20.6425781,58.7788086-15.1699219-.2456055Z"/>
  <path class="st0" d="M538.1064453,55.2529297l-15.9052734,56.2304688-13.5175781-3.8232422-9.9921875-40.6157227-9.8964844,34.9897461-13.5556641-3.8344727,15.9052734-56.2304688,13.5556641,3.8344727,9.9921875,40.6152344,9.8964844-34.9897461,13.5175781,3.8237305Z"/>
  <path class="st0" d="M589.5146484,75.565918l-3.0400391,5.8374023c-.8291016,1.590332-1.9902344,3.0522461-3.4833984,4.3857422-1.4951172,1.3334961-3.1142578,2.4731445-4.859375,3.4199219-1.7451172.9462891-3.4345703,1.6274414-5.0683594,2.043457l-3.7851562-5.5917969c1.4638672-.9570312,2.9394531-2.0961914,4.4277344-3.418457,1.4873047-1.3217773,2.8310547-3.1333008,4.0302734-5.4350586l3.0214844-5.8022461,8.7568359,4.5610352Z"/>
  <path class="st0" d="M621.2949219,152.7006836c.5664062-.7109375.9746094-1.4379883,1.2246094-2.1801758.25-.7416992.2929688-1.5893555.1279297-2.5415039-.1640625-.9526367-.5703125-2.1064453-1.2177734-3.4614258s-1.6044922-2.9995117-2.8691406-4.9321289c-1.4736328-2.2705078-2.8037109-4.5722656-3.9902344-6.9042969-1.1865234-2.3325195-2.0566406-4.6518555-2.6113281-6.9599609-.5556641-2.3076172-.6484375-4.5727539-.2792969-6.7939453.3681641-2.222168,1.3701172-4.3569336,3.0048828-6.4077148,1.5683594-1.9658203,3.4208984-3.3881836,5.5595703-4.2670898,2.1386719-.878418,4.4433594-1.2480469,6.9150391-1.1074219s5.0126953.7636719,7.6220703,1.8691406,5.1787109,2.6674805,7.7099609,4.6865234c3.3466797,2.6689453,5.8388672,5.605957,7.4755859,8.8110352,1.6357422,3.2045898,2.3339844,6.4482422,2.0957031,9.730957-.2402344,3.2827148-1.5107422,6.3676758-3.8134766,9.2543945l-10.9501953-8.7338867c.9169922-1.1503906,1.4912109-2.3525391,1.7216797-3.6069336.2294922-1.2539062.0742188-2.5073242-.4667969-3.7597656-.5410156-1.2529297-1.5224609-2.4467773-2.9453125-3.5810547-1.3798828-1.1010742-2.7080078-1.8178711-3.9833984-2.1503906-1.2753906-.3320312-2.4326172-.3398438-3.4726562-.0229492s-1.8935547.894043-2.5605469,1.7304688c-.5507812.6904297-.8544922,1.4672852-.9082031,2.3300781-.0556641.8632812.0859375,1.8232422.4238281,2.8793945.3378906,1.0571289.8496094,2.2177734,1.5341797,3.4829102.6855469,1.2651367,1.5087891,2.6240234,2.4726562,4.0766602,1.8095703,2.7094727,3.2802734,5.2949219,4.4150391,7.7568359,1.1337891,2.4614258,1.875,4.8149414,2.2236328,7.0605469.3466797,2.2456055.2519531,4.4033203-.2851562,6.472168-.5390625,2.0693359-1.5751953,4.0664062-3.109375,5.9907227-1.6357422,2.050293-3.484375,3.5532227-5.546875,4.5087891-2.0634766.9555664-4.2753906,1.3901367-6.6357422,1.3041992-2.3613281-.0869141-4.8027344-.6728516-7.3242188-1.7597656s-5.0576172-2.6484375-7.609375-4.6835938c-2.34375-1.8686523-4.4121094-4.0063477-6.2060547-6.4121094-1.7939453-2.4067383-3.1152344-4.9663086-3.9638672-7.6787109-.8476562-2.7128906-1.0410156-5.4848633-.5791016-8.3168945.4619141-2.831543,1.7685547-5.597168,3.9208984-8.2954102l11.0449219,8.809082c-1.0683594,1.3388672-1.7910156,2.6098633-2.1699219,3.8139648s-.4433594,2.3588867-.1953125,3.4633789c.2480469,1.1049805.7783203,2.1782227,1.5908203,3.2192383.8125,1.0415039,1.8662109,2.0791016,3.1640625,3.1137695,1.4013672,1.1176758,2.6933594,1.8144531,3.8769531,2.0908203,1.1826172.2758789,2.2431641.2329102,3.1835938-.1298828.9394531-.362793,1.734375-.9521484,2.3857422-1.7680664Z"/>
  <path class="st0" d="M727.5029297,213.0996094l-50.6816406,29.0917969-7.0126953-12.2177734,50.6806641-29.0913086,7.0136719,12.2172852ZM717.7177734,244.909668l-9.3984375,5.3945312-13.3066406-23.1826172,9.3984375-5.3945312,13.3066406,23.1826172ZM739.9501953,234.7851562l-9.4326172,5.4150391-14.4462891-25.1665039,9.4335938-5.4145508,14.4453125,25.1660156Z"/>
  <path class="st0" d="M760.1142578,285.8100586l-55.2949219,18.9023438-4.5439453-13.2919922,55.2958984-18.9023438,4.5429688,13.2919922Z"/>
  <path class="st0" d="M771.6425781,328.8300781l2.8417969,22.8212891c.5556641,4.4609375.3740234,8.4199219-.5429688,11.8779297-.9179688,3.4570312-2.5664062,6.2446289-4.9453125,8.3608398s-5.4794922,3.4121094-9.3037109,3.8881836c-3.3193359.4135742-6.1572266.2412109-8.5166016-.5166016s-4.3779297-1.9697266-6.0546875-3.6342773c-1.6767578-1.6655273-3.1318359-3.6616211-4.3652344-5.9887695l-3.1591797-4.2578125-2.3857422-19.1567383,10.7841797-1.4238281,1.7646484,14.1787109c.2216797,1.7788086.7236328,3.2124023,1.5068359,4.3017578.7822266,1.0888672,1.8017578,1.8588867,3.0576172,2.309082s2.7070312.5727539,4.3535156.3676758c1.6728516-.2080078,3.0683594-.6923828,4.1875-1.4511719,1.1181641-.7602539,1.9228516-1.7705078,2.4130859-3.0307617.4902344-1.2612305.6279297-2.7543945.4130859-4.4799805l-1.1015625-8.8417969-47.1953125,5.8764648-1.7402344-13.9794922,57.9882812-7.2207031ZM717.6064453,367.793457l24.0517578-16.0180664,1.9248047,14.8056641-23.5146484,16.1132812-.5976562.0742188-1.8642578-14.9750977Z"/>
  <path class="st0" d="M730.9150391,443.2675781c.9033203.1083984,1.7363281.0742188,2.4990234-.1025391.7626953-.1777344,1.5058594-.5869141,2.2304688-1.2265625.7236328-.640625,1.4921875-1.5927734,2.3046875-2.8554688s1.7089844-2.9404297,2.6894531-5.03125c1.1582031-2.4482422,2.4179688-4.7890625,3.7783203-7.0234375,1.3613281-2.234375,2.8779297-4.1933594,4.5507812-5.8779297,1.671875-1.6845703,3.5498047-2.9541016,5.6337891-3.8076172s4.4277344-1.1230469,7.03125-.8085938c2.4960938.3017578,4.6806641,1.1308594,6.5517578,2.4892578,1.8701172,1.3574219,3.3955078,3.125,4.5742188,5.3017578,1.1787109,2.1777344,1.984375,4.6669922,2.4140625,7.4677734s.4511719,5.8076172.0625,9.0224609c-.5126953,4.25-1.703125,7.9130859-3.5703125,10.9892578s-4.2607422,5.3740234-7.1787109,6.8955078c-2.9199219,1.5205078-6.2119141,2.0595703-9.8779297,1.6171875l1.6787109-13.90625c1.4609375.1757812,2.7861328.0332031,3.9736328-.4296875s2.1728516-1.2539062,2.9541016-2.3720703c.7822266-1.1191406,1.2822266-2.5810547,1.5-4.3876953.2119141-1.7529297.1240234-3.2597656-.2626953-4.5185547-.3876953-1.2597656-.9882812-2.2490234-1.8046875-2.9667969-.8164062-.71875-1.7558594-1.1425781-2.8183594-1.2705078-.8759766-.1054688-1.6962891.0439453-2.4599609.4511719-.7626953.40625-1.5058594,1.03125-2.2265625,1.8740234-.7226562.8417969-1.4414062,1.8876953-2.1572266,3.1347656-.7167969,1.2480469-1.4404297,2.6621094-2.1699219,4.2460938-1.3554688,2.9619141-2.7822266,5.5722656-4.28125,7.8310547-1.4990234,2.2578125-3.1123047,4.125-4.8398438,5.6005859-1.7285156,1.4755859-3.6132812,2.5283203-5.6572266,3.1582031-2.0429688.6289062-4.2871094.7958984-6.7304688.5009766-2.6035156-.3144531-4.8535156-1.0986328-6.75-2.3515625-1.8974609-1.2529297-3.4287109-2.90625-4.5957031-4.9609375s-1.9501953-4.4394531-2.3505859-7.15625c-.3994141-2.7158203-.4042969-5.6953125-.0126953-8.9355469.359375-2.9755859,1.0917969-5.8583984,2.1962891-8.6484375,1.1054688-2.7919922,2.5888672-5.2607422,4.4521484-7.4072266,1.8623047-2.1464844,4.1191406-3.7675781,6.7714844-4.8623047s5.6914062-1.4345703,9.1181641-1.0214844l-1.6933594,14.0263672c-1.7001953-.2060547-3.1611328-.1533203-4.3847656.1572266s-2.2402344.8613281-3.0498047,1.6533203-1.4443359,1.8066406-1.9033203,3.0449219c-.4599609,1.2382812-.7890625,2.6796875-.9873047,4.3271484-.2148438,1.7792969-.1289062,3.2451172.2568359,4.3974609.3867188,1.1513672.9814453,2.03125,1.7841797,2.640625.8017578.6083984,1.7216797.9765625,2.7568359,1.1015625Z"/>
  <path class="st0" d="M751.0517578,531.2412109l-54.5849609-20.8662109,5.0302734-13.1582031,54.5849609,20.8662109-5.0302734,13.1582031ZM744.7744141,547.6621094l-10.1591797-3.8837891,17.4404297-45.625,10.1591797,3.8837891-17.4404297,45.625Z"/>
  <path class="st0" d="M659.4306641,663.4550781l-8.3720703,8.4853516-41.5976562-41.0429688,9.9228516-10.0566406,9.7138672,9.5839844,30.3330078,33.0302734ZM690.4384766,632.0292969l-8.0625,8.1708984-38.1015625-19.2705078,19.7792969,37.8398438-8.0625,8.1708984-27.6435547-55.1845703,6.5400391-6.6279297,55.5507812,26.9013672ZM695.3427734,627.0576172l-8.34375,8.4570312-33.4335938-29.8876953-9.7138672-9.5839844,9.8945312-10.0283203,41.5966797,41.0429688Z"/>
  <path class="st0" d="M551.7900391,666.8515625l34.9375,33.375,7.5869141,9.8320312-8.4853516,4.7246094-47.2939453-40.5517578,13.2548828-7.3798828ZM562.8828125,685.6191406l-5.2910156-9.5029297,26.1943359-14.5849609,5.2910156,9.5029297-26.1943359,14.5849609ZM584.5527344,701.4375l-10.0048828-47.2578125,13.2207031-7.3603516,9.6669922,61.5019531-8.3808594,4.6660156-4.5019531-11.5498047Z"/>
  <path class="st0" d="M480.8144531,752.0488281l-14.2519531-56.671875,13.6230469-3.4257812,28.9130859,30.2226562-8.8681641-35.2636719,13.6621094-3.4355469,14.2519531,56.671875-13.6621094,3.4355469-28.9130859-30.2236328,8.8681641,35.2646484-13.6230469,3.4257812Z"/>
  <path class="st0" d="M387.6098633,729.3515625l.3891602-23.9980469c1.0078125-1.0810547,2.5449219-2.2265625,4.6118164-3.4375s4.6591797-2.2324219,7.7768555-3.0644531c3.1176758-.8330078,6.7768555-1.2148438,10.9765625-1.1474609,3.8793945.0634766,7.3876953.7421875,10.5234375,2.0380859,3.1376953,1.2949219,5.8164062,3.1708984,8.0380859,5.6289062s3.9121094,5.4550781,5.0722656,8.9931641,1.703125,7.5810547,1.6298828,12.1289062l-.0527344,3.2509766c-.0742188,4.5478516-.7548828,8.5771484-2.0429688,12.0888672-1.2871094,3.5117188-3.0683594,6.4589844-5.3408203,8.8447266-2.2734375,2.3847656-4.9384766,4.1806641-7.9956055,5.3896484-3.0561523,1.2080078-6.4042969,1.7832031-10.0429688,1.7236328-5.3774414-.0869141-9.737793-1.0078125-13.0810547-2.7607422-3.3432617-1.7539062-5.8598633-4.1357422-7.5507812-7.1474609-1.6904297-3.0107422-2.6914062-6.4726562-3.0029297-10.3847656l13.5239258.2197266c.2363281,1.9306641.7114258,3.5771484,1.425293,4.9404297.7138672,1.3623047,1.7470703,2.4091797,3.1000977,3.140625,1.3525391.7304688,3.112793,1.1142578,5.2797852,1.1494141,1.6855469.0273438,3.2231445-.3085938,4.6123047-1.0087891,1.3901367-.7001953,2.5776367-1.7714844,3.5644531-3.2138672s1.7587891-3.2568359,2.315918-5.4414062c.5576172-2.1855469.8603516-4.75.9072266-7.6923828l.0546875-3.3310547c.046875-2.9160156-.1582031-5.4746094-.6191406-7.6767578-.4584961-2.2021484-1.1782227-4.0400391-2.1577148-5.5136719-.9799805-1.4746094-2.2460938-2.5927734-3.7993164-3.3535156-1.5532227-.7617188-3.3994141-1.1591797-5.5400391-1.1933594-1.4980469-.0244141-2.7841797.0810547-3.8588867.3183594-1.0737305.2373047-1.96875.5439453-2.684082.9199219-.7148438.3759766-1.2626953.7353516-1.6430664,1.0771484l-.1469727,9.0693359,9.7915039.1591797-.1567383,9.6708984-23.8774414-.3867188Z"/>
  <path class="st0" d="M322.7919922,684.1484375l1.4628906,48.2939453-1.4956055,12.3291016-9.3608398-2.5908203-5.2280273-62.078125,14.621582,4.0458984ZM321.8564453,731.7783203l26.0400391-40.6845703,14.5830078,4.0351562-36.2773438,50.5947266-9.2451172-2.5576172,4.8994141-11.3876953ZM317.5219727,705.3017578l2.9003906-10.4824219,28.8955078,7.9951172-2.9003906,10.4824219-28.8955078-7.9951172Z"/>
  <path class="st0" d="M207.7231445,642.0751953l-11.0083008-8.7255859c2.6738281-3.0712891,5.7602539-5.1992188,9.2612305-6.3847656,3.5004883-1.1865234,7.1762695-1.3535156,11.0263672-.5039062,3.8505859.8496094,7.6625977,2.7705078,11.4370117,5.7626953,3.0615234,2.4267578,5.3847656,5.1054688,6.9716797,8.0351562,1.5869141,2.9306641,2.4487305,6.0214844,2.5859375,9.2714844.1381836,3.2509766-.4462891,6.5947266-1.7539062,10.03125-1.3066406,3.4365234-3.3232422,6.8740234-6.0498047,10.3125l-1.9692383,2.4853516c-2.7260742,3.4384766-5.6376953,6.1748047-8.7358398,8.2089844-3.0976562,2.0341797-6.2587891,3.3525391-9.4848633,3.9541016-3.2246094.6015625-6.4291992.4765625-9.6137695-.3740234-3.1831055-.8505859-6.2226562-2.4228516-9.1162109-4.7167969-3.9833984-3.1572266-6.7836914-6.5380859-8.4008789-10.1416016-1.6157227-3.6035156-2.1948242-7.2460938-1.7348633-10.9267578.4599609-3.6816406,1.809082-7.2138672,4.0458984-10.5957031l11.0083008,8.7255859c-1.3208008,1.7529297-2.1699219,3.4277344-2.5478516,5.0234375-.3769531,1.5957031-.2109375,3.1523438.4975586,4.6699219.7094727,1.5185547,2.0380859,3.0498047,3.9882812,4.5957031,1.3632812,1.0810547,2.7470703,1.7685547,4.1523438,2.0625,1.4052734.2949219,2.8759766.1630859,4.4111328-.3955078,1.5356445-.5585938,3.1513672-1.5742188,4.847168-3.0458984,1.6967773-1.4726562,3.5087891-3.4248047,5.4365234-5.8574219l2.0195312-2.546875c1.9282227-2.4326172,3.4272461-4.625,4.4960938-6.5771484,1.0698242-1.9521484,1.7119141-3.7314453,1.9257812-5.3359375.2143555-1.6054688.0058594-3.0771484-.625-4.4130859-.6303711-1.3369141-1.7006836-2.6035156-3.2104492-3.7998047-1.6772461-1.3300781-3.3046875-2.1845703-4.8818359-2.5644531-1.5766602-.3789062-3.1162109-.2675781-4.6181641.3339844-1.5014648.6025391-2.9545898,1.7470703-4.3598633,3.4326172Z"/>
  <path class="st0" d="M166.9287109,567.9951172l-28.1855469,39.2431641-8.6796875,8.8828125-5.8603516-7.7451172,33.5717773-52.4785156,9.1538086,12.0976562ZM137.2421875,605.2539062l45.4033203-16.4873047,9.1293945,12.0664062-59.5561523,18.1367188-5.7875977-7.6494141,10.8110352-6.0664062ZM149.8886719,581.5927734l8.6738281-6.5625,18.0898438,23.9082031-8.6738281,6.5625-18.0898438-23.9082031Z"/>
  <path class="st0" d="M76.3134766,519.6503906l9.9853516-4.3115234,11.503418,26.640625-9.9853516,4.3115234-11.503418-26.640625ZM86.2255859,542.6064453l53.6489258-23.1660156,5.5844727,12.9335938-53.6489258,23.1650391-5.5844727-12.9326172ZM99.5493164,512.109375l9.9487305-4.2958984,10.5961914,24.5400391-9.9482422,4.2958984-10.5966797-24.5400391Z"/>
  <path class="st0" d="M57.2470703,440.2353516l10.6967773-1.9677734,5.6577148,30.7490234-10.6972656,1.9677734-5.6572266-30.7490234ZM61.996582,466.0507812l57.4716797-10.5742188,2.5493164,13.8544922-57.4716797,10.5742188-2.5493164-13.8544922ZM80.8100586,440.1035156l10.3022461-1.8955078,4.909668,26.6835938-10.3022461,1.8955078-4.909668-26.6835938ZM104.0830078,431.7412109l10.6577148-1.9609375,5.6357422,30.6308594-10.6577148,1.9599609-5.6357422-30.6298828Z"/>
</svg>