<svg xmlns="http://www.w3.org/2000/svg" viewBox="0 0 288 287" class="h-8 w-36 xl:h-10 xl:w-[186px] ">
  <path fill="#f25238" d="M88.08 45.42 120.47 13a44.49 44.49 0 0 1 62.92 0l.93.93a44.49 44.49 0 0 1 0 62.92l-32.39 32.39Z" data-darkreader-inline-fill="" style="--darkreader-inline-fill: #f35c44;"></path>
  <path fill="#f68774" d="m176.18 133.51 32.39-32.39a44.49 44.49 0 0 1 62.92 0l.93.93a44.49 44.49 0 0 1 0 62.92L240 197.36l-63.85-63.85ZM0 133.51l32.39-32.39a44.49 44.49 0 0 1 62.92 0l.93.93a44.49 44.49 0 0 1 0 62.92l-32.39 32.39Z" data-darkreader-inline-fill="" style="--darkreader-inline-fill: #f6826e;"></path>
  <path fill="#fcd3cd" d="m88.08 221.6 32.39-32.39a44.49 44.49 0 0 1 62.92 0l.93.93a44.49 44.49 0 0 1 0 62.92l-32.39 32.36Z" data-darkreader-inline-fill="" style="--darkreader-inline-fill: #fab6ac;"></path>
</svg>