<?xml version="1.0" encoding="utf-8"?>
<!-- Generator: Adobe Illustrator 25.4.1, SVG Export Plug-In . SVG Version: 6.00 Build 0)  -->
<svg version="1.2" baseProfile="tiny" id="Layer_1" xmlns="http://www.w3.org/2000/svg" xmlns:xlink="http://www.w3.org/1999/xlink"
	 x="0px" y="0px" viewBox="0 0 39 40" overflow="visible" xml:space="preserve">

<path fill="#F6343F" d="M33.8,12c-0.1-0.1-0.1-0.2-0.1-0.3v0c-0.4-4.1-0.9-6.8-0.9-6.8c-0.1-0.5-0.5-0.8-1-0.9l-3.3-0.4
	c0,0-0.1,0-0.1,0c-0.4,0-0.7,0.3-0.7,0.7v1.1c0,0,0,0,0,0c0,0,0,0,0,0l0,0c-2-1.8-4.2-3.5-6.6-5C20.6,0.2,20,0,19.4,0v0h0v0
	c-0.6,0-1.2,0.2-1.6,0.5C6.5,7.4,0.3,18.7,0.1,19.4C0,19.5,0,19.7,0,19.8c0,0.5,0.4,1,0.8,1.1l3.2,0.6c0.4,0.1,0.8,0.5,0.8,0.9
	c0,0.6,0.6,13.4,1.4,16.7C6.4,39.6,6.9,40,7.4,40h0c1.9,0,3.6-0.1,5.5-0.1c0,0,0,0,0,0h0l0,0c0,0,0.1,0,0.1,0c0.2,0,0.4-0.2,0.4-0.4
	c0,0,0,0,0,0c-0.1-1.1-0.2-3.7-0.4-6.4c0-0.1,0-0.2,0-0.2h0c0-0.2-0.1-0.4-0.3-0.6c-1-0.6-1.6-1.6-1.7-2.8c-0.2-4.5-0.3-9.7,0-13.7
	c0-0.3,0.3-0.6,0.6-0.6c0.4,0,0.7,0.3,0.7,0.6c0,0,0,0,0,0.1c-0.2,2.7-0.2,5.9-0.1,9.1c0,0.4,0.4,0.8,0.8,0.8c0.4,0,0.8-0.4,0.8-0.8
	c-0.1-3.2,0-6.4,0.1-9.1c0-0.3,0.3-0.6,0.6-0.6c0.4,0,0.7,0.3,0.7,0.6c0,0,0,0,0,0.1c-0.2,2.7-0.2,5.9-0.1,9c0,0,0,0,0,0
	c0,0.4,0.4,0.8,0.8,0.8c0.4,0,0.8-0.4,0.8-0.8c-0.1-3.2,0-6.4,0.1-9.1c0-0.3,0.3-0.6,0.6-0.6c0.4,0,0.7,0.3,0.7,0.6c0,0,0,0,0,0.1
	c-0.2,3.9-0.2,8.9,0,13.3c0,0,0,0,0,0c0,0,0,0,0,0.1c0,0,0,0,0,0c0,0,0,0,0,0c0,1.2-0.6,2.3-1.5,2.9c-0.2,0.1-0.3,0.3-0.3,0.5
	c0,0-0.1,0.7,0.2,3.9c0.1,1.4,0.2,2.4,0.3,2.9c0,0.2,0.2,0.3,0.3,0.3c0.1,0,0.2,0,0.3,0h0c0.6,0,1.3,0,1.9,0h0.1h0.1
	c0.8,0,1.7,0,2.4,0l1.8,0c0,0,0,0,0,0c0.2,0,0.3-0.1,0.3-0.3c0.4-3.9,0.5-6.1,0.5-6.1c0-0.2-0.2-0.3-0.3-0.4l-2.2-0.3
	c-0.4-0.1-0.6-0.3-0.6-0.5c0-0.2,0-0.3,0-0.3c0.9-13,5.2-17.4,5.2-17.4c0.1-0.1,0.2-0.2,0.2-0.2c0.1-0.1,0.3-0.1,0.4-0.1
	c0.3,0,0.5,0.2,0.6,0.4c0,0,0,0.1,0.1,0.3c0.4,4.1,0.2,11.1,0,16.5c-0.2,4.6-0.4,8.2-0.4,8.2c0,0,0,0,0,0c0,0.1,0.1,0.3,0.3,0.3v0
	c1.2,0,2.4,0,3.7,0.1h0c0.5,0,1-0.4,1.1-0.8c0.8-3.3,1.4-16.1,1.4-16.7c0-0.5,0.4-0.8,0.8-0.9l3.2-0.6c0.5-0.1,0.8-0.6,0.8-1.1
	c0-0.2,0-0.3-0.1-0.5C38.6,19,36.9,15.9,33.8,12"/>
</svg>
