<?xml version="1.0" encoding="UTF-8"?>
<svg id="Layer_1" xmlns="http://www.w3.org/2000/svg" version="1.1" viewBox="0 0 383.1271415 428.3449641">
  <!-- Generator: Adobe Illustrator 29.1.0, SVG Export Plug-In . SVG Version: 2.1.0 Build 142)  -->
  <defs>
    <style>
      .st0 {
        fill: #fff;
      }

      .st0, .st1, .st2, .st3 {
        stroke: #231f20;
        stroke-linecap: round;
        stroke-linejoin: round;
      }

      .st0, .st2, .st3 {
        stroke-width: 3px;
      }

      .st1, .st4 {
        fill: #231f20;
      }

      .st2 {
        fill: none;
      }

      .st3 {
        fill: #a8def0;
      }
    </style>
  </defs>
  <path class="st0" d="M333.4388288,122.744619c-15.5031738-.5963135-21.4658813,6.2219849-21.4658813,6.2219849-5.9627686-28.3619385-33.3914185-26.4953003-33.3914185-26.4953003,10.1367188-20.2733765,5.3665161-44.7205811,5.3665161-44.7205811,0,0-12.5217896-50.0870972-56.5101929-47.7019653-43.9884033,2.3850708-44.8564453,39.9503784-44.8564453,39.9503784-17.2919922-36.9689941-42.2346191-32.1987915-42.2346191-32.1987915-53.5637817,2.3850708-56.7469482,79.3044434-56.7469482,79.3044434-4.1738892-10.7329102-73.3417358-21.4658813-73.3417358,45.3168945,0,50.7208252,32.3796387,64.4558105,47.954895,68.1287231,1.7545776.4137573,3.2903442.697937,4.5479736.8948975l3.6314087.4222412v-14.3047485l109.1688843,26.9987793s12.9124146,8.8039551,28.7595215,0l110.9296875-26.9987793v14.3931274l-110.9296875,12.6056519,129.1245117-14.6732178,8.0685425,9.125061c17.1289062-11.5852051,30.1472778-27.7753296,31.2790527-50.3557129,1.6484375-32.8889771-23.8509521-45.3168335-39.3540649-45.9130859Z"/>
  <path class="st3" d="M49.3713993,209.8883413l126.1898561,14.6732391s12.9124504,8.8039434,28.7595486,0l129.1245039-14.6732391,8.2170139,9.2930514-135.5807291,14.1841311s-16.0585056,10.622047-31.1072668,0l-133.8199404-15.2601686,8.2170139-8.2170139Z"/>
  <polygon class="st0" points="315.2504914 211.955934 315.2504914 197.5628204 204.3208039 224.5615803 315.2504914 211.955934"/>
  <polygon class="st3" points="41.1543854 218.1053551 41.1543854 398.292731 175.5612553 414.7267588 174.9743258 233.3655238 41.1543854 218.1053551"/>
  <polygon class="st3" points="206.0815926 233.3655238 206.0815926 414.7267588 341.6623217 398.8796606 341.6623217 219.1813927 206.0815926 233.3655238"/>
  <path class="st3" d="M174.9743055,233.365541l.5869751,181.3612061s14.6732178,8.217041,30.5203247,0v-181.3612061s-16.0585327,10.6220093-31.1072998,0Z"/>
  <path class="st2" d="M120.976806,162.9339762s24.6510416,25.2379712,65.1491815,25.2379712,55.7583085-14.6732391,67.4968998-25.2379712"/>
  <line class="st2" x1="110.9990034" y1="170.5640605" x2="126.259172" y2="155.8908215"/>
  <line class="st2" x1="247.166662" y1="157.0646806" x2="260.0791124" y2="166.4555536"/>
  <path class="st2" d="M214.1652859,185.2538658s7.1764754,7.0265886,13.045771,12.3089546c5.8692956,5.2823661,17.0209573,4.1085069,17.0209573,4.1085069,0,0,13.4049456-1.6468996,2.9346478-13.49938-9.0566274-10.2521914-33.0013762-2.9180816-33.0013762-2.9180816Z"/>
  <path class="st4" d="M214.1652832,185.2538605c7.4051919-1.0707215,23.778055,1.2920645,26.545339,9.3741043-3.4727301-3.2681236-8.3488752-3.9305435-12.7571331-5.3180511-4.1271773-1.1367485-9.7969151-2.5225166-13.7882059-4.0560532h0Z"/>
  <ellipse class="st0" cx="214.8553343" cy="128.9665895" rx="23.2547004" ry="34.2608515"/>
  <path class="st4" d="M214.558412,94.7167984c-12.7056885.2353516-22.9577637,15.4747925-22.9577637,34.2498169,0,9.1903076,2.4608765,17.5287476,6.4588623,23.6816406,2.3964233,2.4193726,5.1247559,3.795166,8.0220947,3.795166,9.5166626,0,17.2313843-14.7744751,17.2313843-32.9996948,0-12.3220825-3.5289917-23.0592041-8.7545776-28.7269287Z"/>
  <ellipse class="st0" cx="156.9159033" cy="128.9665895" rx="23.2547004" ry="34.2608515"/>
  <path class="st4" d="M156.618981,94.7167984c-12.7056885.2353516-22.9577637,15.4747925-22.9577637,34.2498169,0,9.1903076,2.4608765,17.5287476,6.4588623,23.6816406,2.3964233,2.4193726,5.1247559,3.795166,8.0220947,3.795166,9.5166626,0,17.2313843-14.7744751,17.2313843-32.9996948,0-12.3220825-3.5289917-23.0592041-8.7545776-28.7269287Z"/>
  <path class="st2" d="M275.9109237,303.4414517l3.5981559-3.6213125c2.5897435-2.6064102,2.5897435-6.8322362,0-9.4386464l-3.6948149-3.7185935c-2.5897435-2.6064102-2.5897435-6.8322362,0-9.4386464l3.4275257-3.4495841"/>
  <path class="st2" d="M258.0348991,307.4414517l3.5981559-3.6213125c2.5897435-2.6064102,2.5897435-6.8322362,0-9.4386464l-3.6948149-3.7185935c-2.5897435-2.6064102-2.5897435-6.8322362,0-9.4386464l3.4275257-3.4495841"/>
  <path class="st1" d="M235.5925385,316.9540757s4.195062,33.3974014,35.4673423,32.2532935c31.2722803-1.1441078,33.1791267-29.365434,33.9418652-38.5182965l-69.4092075,6.265003Z"/>
  <line class="st2" x1="245.5081395" y1="361.7925552" x2="305.001746" y2="354.5465391"/>
  <path class="st2" d="M237.1819868,318.4717729l72.5807121-8.2290325c1.3241326-.119815,2.6639286-.0828718,3.9649777.1909057,2.7228323.572961,6.3329936,2.269872,6.224824,7.2456749-.1730714,7.9612846-7.6151418,9.0862487-7.6151418,9.0862487"/>
  <polygon class="st0" points="175.5612553 224.5615803 66.3923566 197.5628204 66.3923566 211.8675223 175.5612553 224.5615803"/>
</svg>