<svg width="192" height="54" viewBox="0 0 192 54" fill="none" xmlns="http://www.w3.org/2000/svg">
<path fill-rule="evenodd" clip-rule="evenodd" d="M122.933 30.9444C124.006 30.9444 124.95 30.8085 124.95 30.8085V26.3787C124.95 26.3787 124.504 26.4251 123.873 26.4251C121.945 26.4251 121.494 25.2957 121.494 23.2603V0H112.525V4.11189H116.113V23.6252C116.113 29.6811 119.343 30.9444 122.933 30.9444ZM182.321 31.1788C178.097 31.1788 173.007 29.3843 173.007 25.6599V23.062H177.69V24.4506C177.69 26.1105 179.959 26.9173 182.409 26.9173C184.775 26.9173 186.497 26.0624 186.497 24.4506C186.497 22.7038 184.722 22.0798 182.177 21.1853L182.176 21.1852L182.175 21.1848L182.172 21.1836L182.17 21.1831L182.168 21.1825C181.838 21.0661 181.494 20.9452 181.139 20.8166C177.733 19.6053 173.824 18.0783 173.824 13.7761C173.824 8.97352 178.639 7.26723 182.818 7.26723C186.183 7.26723 191.132 8.56554 191.132 11.9759V14.8489H186.361V13.501C186.361 12.2917 184.911 11.529 182.868 11.529C180.958 11.529 179.324 12.2453 179.324 13.728C179.324 15.7 181.681 16.4664 184.271 17.2715C187.817 18.392 191.996 19.8306 191.996 24.2659C191.996 28.8432 187.634 31.1788 182.321 31.1788ZM64.1488 46.2326C64.1488 44.4307 62.8952 43.1894 61.3366 43.1894C59.7442 43.1894 58.4904 44.4307 58.4904 46.2326C58.4904 48.035 59.7442 49.2759 61.3366 49.2759C62.8952 49.2759 64.1488 48.035 64.1488 46.2326ZM56.9657 46.2326C56.9657 43.8864 58.5751 41.8295 61.201 41.8295C62.5564 41.8295 63.4372 42.2714 64.1151 43.0536H64.1488V38.446H65.6395V50.432H64.2164V49.3271H64.183C63.6235 50.109 62.5564 50.6362 61.201 50.6362C58.5751 50.6362 56.9657 48.5789 56.9657 46.2326ZM6.82852 42.9263C6.82852 44.2485 5.97253 45.0454 4.52914 45.0454H2.51517V40.8076H4.52914C5.97253 40.8076 6.82852 41.604 6.82852 42.9263ZM4.64662 39.3837H0.937727V50.4018H2.51517V46.4693H4.64662C6.89555 46.4693 8.43936 45.0621 8.43936 42.9263C8.43936 40.7904 6.92894 39.3837 4.64662 39.3837ZM16.485 46.1818C16.485 47.9533 15.2671 49.2603 13.5966 49.2603C11.9267 49.2603 10.7088 47.9533 10.7088 46.1818C10.7088 44.4106 11.9267 43.1036 13.5966 43.1036C15.2671 43.1036 16.485 44.4106 16.485 46.1818ZM13.5966 41.728C10.5695 41.728 9.14265 44.1011 9.14265 46.1818C9.14265 48.2628 10.5695 50.6362 13.5966 50.6362C16.6242 50.6362 18.0509 48.2628 18.0509 46.1818C18.0509 44.1011 16.6242 41.728 13.5966 41.728ZM18.5198 41.9624H20.1268L22.4271 48.5226H22.461L24.406 41.9624H25.9961L27.9409 48.5226H27.9748L30.2753 41.9624H31.8821L28.8036 50.4018H27.0954L25.1671 44.2689L23.3068 50.4018H21.5983L18.5198 41.9624ZM38.7746 45.3908H33.6635C33.7645 44.1698 34.689 43.0691 36.2022 43.0691C37.6985 43.0691 38.6572 44.1698 38.7746 45.3908ZM36.2022 41.728C33.7811 41.728 32.1166 43.551 32.1166 46.1818C32.1166 48.8305 33.8148 50.6362 36.2696 50.6362C37.8331 50.6362 39.0605 50.0513 39.817 49.0538L38.8755 48.1082C38.3207 48.7446 37.4802 49.2603 36.2862 49.2603C34.8907 49.2603 33.7138 48.1768 33.63 46.6978H40.288C40.3046 46.5433 40.3215 46.337 40.3215 46.1303C40.3215 43.4992 38.6401 41.728 36.2022 41.728ZM42.1968 41.9336H43.6032V42.9451H43.6368C44.0388 42.1908 44.8425 41.728 45.8975 41.728C46.3328 41.728 46.7684 41.8136 47.1198 41.9677L46.6176 43.442C46.3163 43.2879 45.9476 43.2192 45.5962 43.2192C44.424 43.2192 43.6703 44.1792 43.6703 45.5507V50.4018H42.1968V41.9336ZM54.2468 45.3908H49.1356C49.2364 44.1698 50.1611 43.0691 51.6743 43.0691C53.1707 43.0691 54.1291 44.1698 54.2468 45.3908ZM51.6743 41.728C49.2533 41.728 47.5887 43.551 47.5887 46.1818C47.5887 48.8305 49.2867 50.6362 51.7417 50.6362C53.3052 50.6362 54.5325 50.0513 55.2892 49.0538L54.3476 48.1082C53.7928 48.7446 52.9521 49.2603 51.7583 49.2603C50.3628 49.2603 49.1859 48.1768 49.1019 46.6978H55.7599C55.7768 46.5433 55.7936 46.337 55.7936 46.1303C55.7936 43.4992 54.1122 41.728 51.6743 41.728ZM76.8593 43.1894C78.4083 43.1894 79.628 44.4307 79.628 46.2326C79.628 48.035 78.4083 49.2759 76.8593 49.2759C75.3426 49.2759 74.1227 48.035 74.1227 46.2326C74.1227 44.4307 75.3426 43.1894 76.8593 43.1894ZM74.0569 49.3271H74.0899C74.601 50.1432 75.6722 50.6362 76.9912 50.6362C79.5459 50.6362 81.1116 48.5789 81.1116 46.2326C81.1116 43.8864 79.5459 41.8295 76.9912 41.8295C75.6722 41.8295 74.8481 42.2714 74.156 43.0536H74.1227V38.446H72.6723V50.432H74.0569V49.3271ZM82.3453 53.5982V52.2271C82.4809 52.2615 82.7183 52.2959 82.9552 52.2959C83.9379 52.2959 84.2767 51.9529 84.9038 50.5819L81.3461 41.9624H82.9552L85.683 48.6628H85.7167L88.4445 41.9624H90.0199L86.5301 50.4278C85.6154 52.6383 84.8696 53.6838 83.125 53.6838C82.8538 53.6838 82.5485 53.6494 82.3453 53.5982ZM99.5358 39.1493C95.6968 39.1493 94.0052 42.2169 94.0052 44.8925C94.0052 47.5686 95.7305 50.6362 99.5021 50.6362C101.532 50.6362 103.189 49.886 104.086 48.8977V44.9099H99.7217V46.3415H102.496V48.267C101.768 48.8806 100.72 49.2044 99.5864 49.2044C97.3374 49.2044 95.629 47.3638 95.629 44.8925C95.629 42.4217 97.2527 40.5809 99.5021 40.5809C100.72 40.5809 101.853 41.0923 102.563 41.859L103.595 40.8198C102.665 39.831 101.329 39.1493 99.5358 39.1493ZM110.328 44.7742C111.842 44.7742 112.746 44.0281 112.746 42.7906C112.746 41.5533 111.876 40.8076 110.397 40.8076H108.066V44.7742H110.328ZM106.43 39.3837H110.571C112.868 39.3837 114.417 40.672 114.417 42.7906C114.417 44.3332 113.39 45.5198 111.894 45.9437L114.869 50.4018H112.938L110.154 46.1981H108.066V50.4018H106.43V39.3837ZM116.276 39.3837V46.1315C116.276 48.6132 117.762 50.6362 120.487 50.6362C123.212 50.6362 124.715 48.6132 124.715 46.1315V39.3837H123.163V46.1826C123.163 48.1375 121.99 49.1914 120.487 49.1914C119.017 49.1914 117.828 48.1375 117.828 46.1826V39.3837H116.276ZM131.311 48.9779C132.473 48.9779 133.203 48.334 133.203 47.2489C133.203 46.147 132.473 45.5031 131.311 45.5031H129.088V48.9779H131.311ZM130.963 44.1128C132.025 44.1128 132.721 43.4859 132.721 42.4519C132.721 41.4176 132.025 40.8076 130.979 40.8076H129.088V44.1128H130.963ZM127.528 39.3837H131.162C133.053 39.3837 134.315 40.5364 134.315 42.3502C134.315 43.4012 133.717 44.1976 132.888 44.6385C134.049 45.0454 134.796 46.0284 134.796 47.3506C134.796 49.1475 133.319 50.4018 131.344 50.4018H127.528V39.3837ZM138.5 39.3837H136.905V50.4018H138.5V45.5031H143.983V50.4018H145.579V39.3837H143.983V44.0792H138.5V39.3837ZM147.923 46.1315V39.3837H149.562V46.1826C149.562 48.1375 150.817 49.1914 152.369 49.1914C153.955 49.1914 155.193 48.1375 155.193 46.1826V39.3837H156.832V46.1315C156.832 48.6132 155.245 50.6362 152.369 50.6362C149.492 50.6362 147.923 48.6132 147.923 46.1315ZM164.748 47.2489C164.748 48.334 163.97 48.9779 162.734 48.9779H160.367V45.5031H162.734C163.97 45.5031 164.748 46.147 164.748 47.2489ZM164.235 42.4519C164.235 43.4859 163.494 44.1128 162.363 44.1128H160.367V40.8076H162.381C163.494 40.8076 164.235 41.4176 164.235 42.4519ZM162.575 39.3837H158.707V50.4018H162.77C164.871 50.4018 166.443 49.1475 166.443 47.3506C166.443 46.0284 165.648 45.0454 164.412 44.6385C165.295 44.1976 165.931 43.4012 165.931 42.3502C165.931 40.5364 164.589 39.3837 162.575 39.3837ZM157.993 13.728C157.993 15.7 160.352 16.4664 162.938 17.2715C166.486 18.392 170.663 19.8306 170.663 24.2659C170.663 28.8432 166.308 31.1788 160.988 31.1788C156.766 31.1788 151.674 29.3843 151.674 25.6599V23.062H156.358V24.4503C156.358 26.1105 158.625 26.9173 161.078 26.9173C163.443 26.9173 165.169 26.0624 165.169 24.4503C165.169 22.7034 163.391 22.0795 160.841 21.1848L160.84 21.1847C160.507 21.0677 160.16 20.946 159.803 20.8166C156.399 19.6053 152.493 18.0783 152.493 13.7761C152.493 8.97352 157.31 7.26723 161.489 7.26723C164.848 7.26723 169.799 8.56554 169.799 11.9759V14.8489H165.031V13.501C165.031 12.2917 163.576 11.529 161.534 11.529C159.623 11.529 157.993 12.2453 157.993 13.728ZM132.562 16.6907C133.145 13.5498 135.313 11.4856 138.334 11.4856C140.86 11.4856 142.894 13.3708 143.028 16.6907H132.562ZM138.471 7.26723C131.66 7.26723 126.825 12.1603 126.825 19.2011C126.825 25.7521 131.613 31.1788 139.152 31.1788C144.879 31.1788 148.352 27.9937 148.352 27.9937L146.234 24.1385C146.234 24.1385 143.3 26.6015 139.509 26.6015C135.946 26.6015 132.785 24.3137 132.423 19.9635H148.489C148.489 19.9635 148.627 18.7078 148.627 18.0802C148.627 12.0701 145.059 7.26723 138.471 7.26723ZM100.948 12.2205C96.9472 12.2205 94.8992 16.2233 94.8992 20.5002V26.6184H98.312V30.7099H89.3973V17.0346C89.3973 14.4673 88.9854 12.2205 86.1232 12.2205C81.9373 12.2205 79.936 16.5808 79.936 20.7688V26.6184H83.3469V30.7099H71.0233V26.6184H74.4341V12.8484C74.4341 12.2205 74.071 11.9018 73.4327 11.9018H70.7969V7.80829H76.7069C78.7099 7.80829 79.7096 8.7084 79.7096 10.3756V11.4055C79.7096 11.9463 79.6196 12.4871 79.6196 12.4871H79.7096C80.8927 10.0588 83.8504 7.26724 87.6676 7.26724C90.9885 7.26724 93.31 8.79915 94.1729 12.3093H94.2629C95.5395 9.6085 98.6751 7.26724 102.361 7.26724C107.137 7.26724 109.819 10.0123 109.819 15.999V26.6184H113.228V30.7099H104.312V17.0346C104.312 14.334 103.814 12.2205 100.948 12.2205ZM54.8943 27.0965C58.1755 27.0965 60.4259 23.6435 60.4259 20.6801V19.873H59.434C57.2317 19.873 51.4317 20.1888 51.4317 23.8227C51.4317 25.5731 52.692 27.0965 54.8943 27.0965ZM65.818 25.5749C65.818 26.2453 66.179 26.5591 66.81 26.5591H68.9216V30.6397H63.6602C61.5913 30.6397 60.7824 29.5652 60.7824 28.2191V27.9476C60.7824 27.187 60.9193 26.692 60.9193 26.692H60.8269C60.8269 26.692 58.8949 31.1788 53.5446 31.1788C49.6324 31.1788 45.9477 28.8913 45.9477 24.2252C45.9477 17.2308 55.2083 16.5532 58.9394 16.5532H60.381V15.7461C60.381 12.6959 58.4915 11.6195 56.0189 11.6195C52.5526 11.6195 49.5434 13.8168 49.5434 13.8168L47.4746 10.0517C47.4746 10.0517 50.9816 7.26723 56.4668 7.26723C62.5833 7.26723 65.818 10.4081 65.818 16.2431V25.5749ZM27.5356 16.6907C28.1209 13.5498 30.2896 11.4856 33.313 11.4856C35.8422 11.4856 37.8732 13.3708 38.0089 16.6907H27.5356ZM43.6034 18.0802C43.6034 12.0701 40.039 7.26723 33.4477 7.26723C26.6314 7.26723 21.8017 12.1603 21.8017 19.2011C21.8017 25.7521 26.5887 31.1788 34.1279 31.1788C39.8571 31.1788 43.3358 27.9937 43.3358 27.9937L41.2134 24.1385C41.2134 24.1385 38.2773 26.6015 34.4884 26.6015C30.9222 26.6015 27.7611 24.3137 27.3989 19.9635H43.4695C43.4695 19.9635 43.6034 18.7078 43.6034 18.0802ZM0 25.6599C0 29.3843 5.08965 31.1788 9.31207 31.1788C14.6279 31.1788 18.9886 28.8432 18.9886 24.2659C18.9886 19.8306 14.8114 18.392 11.2679 17.2715C8.67627 16.4664 6.31455 15.7 6.31455 13.728C6.31455 12.2453 7.95061 11.529 9.85801 11.529C11.9017 11.529 13.3545 12.2917 13.3545 13.501V14.8489H18.1284V11.9759C18.1284 8.56554 13.1768 7.26723 9.81483 7.26723C5.63383 7.26723 0.819035 8.97352 0.819035 13.7761C0.819035 18.0783 4.72519 19.6053 8.13384 20.8166C8.49066 20.9459 8.83654 21.0674 9.16926 21.1843C11.7171 22.0793 13.4928 22.703 13.4928 24.4506C13.4928 26.0624 11.7669 26.9173 9.40544 26.9173C6.95036 26.9173 4.6785 26.1105 4.6785 24.4506V23.062H0V25.6599Z" fill="#FF8000"/>
</svg>
